<?xml version="1.0" encoding="UTF-8"?>
<svg width="128px" height="128px" viewBox="0 0 128 128" xmlns="http://www.w3.org/2000/svg">
  <circle cx="64" cy="64" r="60" fill="#f0f4f8"/>
  <path d="M64 6.4c31.8 0 57.6 25.8 57.6 57.6S95.8 121.6 64 121.6 6.4 95.8 6.4 64 32.2 6.4 64 6.4m0-6.4C28.7 0 0 28.7 0 64s28.7 64 64 64 64-28.7 64-64S99.3 0 64 0z" fill="#cbd5e0"/>
  <path d="M64 86.4c11.8 0 21.4-9.6 21.4-21.4v-8.5c0-11.8-9.6-21.4-21.4-21.4s-21.4 9.6-21.4 21.4V65c0 11.8 9.6 21.4 21.4 21.4z" fill="#64748b"/>
  <path d="M40 99.4c-8.2 0-14.8 6.6-14.8 14.8v1.6c10.7 7.6 23.7 12.1 37.9 12.1 14.2 0 27.2-4.5 37.9-12.1v-1.6c0-8.2-6.6-14.8-14.8-14.8H40z" fill="#64748b"/>
</svg>